<mxfile host="app.diagrams.net" modified="2023-03-30T17:15:25.562Z" agent="5.0 (Macintosh; Intel Mac OS X 10_15_7) AppleWebKit/605.1.15 (KHTML, like Gecko) Version/16.2 Safari/605.1.15" etag="ofUj5iskT_EK-dLhjR6S" version="21.0.8" type="github">
  <diagram name="Page-1" id="wZG1X5hC_6cU6T0QBo_v">
    <mxGraphModel dx="2901" dy="1187" grid="1" gridSize="10" guides="1" tooltips="1" connect="1" arrows="1" fold="1" page="1" pageScale="1" pageWidth="827" pageHeight="1169" math="0" shadow="0">
      <root>
        <mxCell id="0" />
        <mxCell id="1" parent="0" />
        <mxCell id="vCusc7SqLOjIVwU9UAQ7-2" value="&lt;font style=&quot;font-size: 26px;&quot;&gt;Main&lt;/font&gt;" style="rounded=1;whiteSpace=wrap;html=1;fillColor=#94E3FE;strokeColor=#00A3D7;" vertex="1" parent="1">
          <mxGeometry x="319" y="490" width="190" height="120" as="geometry" />
        </mxCell>
        <mxCell id="vCusc7SqLOjIVwU9UAQ7-3" value="" style="endArrow=open;html=1;endSize=12;startArrow=diamondThin;startSize=14;startFill=0;edgeStyle=orthogonalEdgeStyle;align=left;verticalAlign=bottom;rounded=0;" edge="1" parent="1">
          <mxGeometry x="-1" y="3" relative="1" as="geometry">
            <mxPoint x="509" y="549.5" as="sourcePoint" />
            <mxPoint x="669" y="549.5" as="targetPoint" />
          </mxGeometry>
        </mxCell>
        <mxCell id="vCusc7SqLOjIVwU9UAQ7-5" value="&lt;font style=&quot;font-size: 26px;&quot;&gt;MotionSensor&lt;/font&gt;" style="rounded=1;whiteSpace=wrap;html=1;fillColor=#94E3FE;strokeColor=#00A3D7;" vertex="1" parent="1">
          <mxGeometry x="670" y="490" width="190" height="120" as="geometry" />
        </mxCell>
        <mxCell id="vCusc7SqLOjIVwU9UAQ7-6" value="" style="endArrow=open;html=1;endSize=12;startArrow=diamondThin;startSize=14;startFill=0;edgeStyle=orthogonalEdgeStyle;align=left;verticalAlign=bottom;rounded=0;" edge="1" parent="1">
          <mxGeometry x="-1" y="3" relative="1" as="geometry">
            <mxPoint x="413" y="490" as="sourcePoint" />
            <mxPoint x="413" y="370" as="targetPoint" />
          </mxGeometry>
        </mxCell>
        <mxCell id="vCusc7SqLOjIVwU9UAQ7-7" value="&lt;font style=&quot;font-size: 26px;&quot;&gt;LightSensor&lt;/font&gt;" style="rounded=1;whiteSpace=wrap;html=1;fillColor=#94E3FE;strokeColor=#00A3D7;" vertex="1" parent="1">
          <mxGeometry x="330" y="250" width="190" height="120" as="geometry" />
        </mxCell>
        <mxCell id="vCusc7SqLOjIVwU9UAQ7-8" value="" style="endArrow=open;html=1;endSize=12;startArrow=diamondThin;startSize=14;startFill=0;edgeStyle=orthogonalEdgeStyle;align=left;verticalAlign=bottom;rounded=0;" edge="1" parent="1">
          <mxGeometry x="-1" y="3" relative="1" as="geometry">
            <mxPoint x="319" y="549.5" as="sourcePoint" />
            <mxPoint x="190" y="549.5" as="targetPoint" />
          </mxGeometry>
        </mxCell>
        <mxCell id="vCusc7SqLOjIVwU9UAQ7-12" value="" style="endArrow=open;html=1;endSize=12;startArrow=diamondThin;startSize=14;startFill=0;edgeStyle=orthogonalEdgeStyle;align=left;verticalAlign=bottom;rounded=0;" edge="1" parent="1">
          <mxGeometry x="-1" y="3" relative="1" as="geometry">
            <mxPoint x="414" y="610" as="sourcePoint" />
            <mxPoint x="414" y="730" as="targetPoint" />
          </mxGeometry>
        </mxCell>
        <mxCell id="vCusc7SqLOjIVwU9UAQ7-13" value="&lt;font style=&quot;font-size: 26px;&quot;&gt;TemperatureSensor&lt;/font&gt;" style="rounded=1;whiteSpace=wrap;html=1;fillColor=#94E3FE;strokeColor=#00A3D7;" vertex="1" parent="1">
          <mxGeometry x="-60" y="490" width="250" height="120" as="geometry" />
        </mxCell>
        <mxCell id="vCusc7SqLOjIVwU9UAQ7-14" value="&lt;font style=&quot;font-size: 26px;&quot;&gt;SoundSensor&lt;/font&gt;" style="rounded=1;whiteSpace=wrap;html=1;fillColor=#94E3FE;strokeColor=#00A3D7;" vertex="1" parent="1">
          <mxGeometry x="319" y="730" width="190" height="120" as="geometry" />
        </mxCell>
        <mxCell id="vCusc7SqLOjIVwU9UAQ7-15" value="" style="endArrow=open;html=1;endSize=12;startArrow=diamondThin;startSize=14;startFill=0;edgeStyle=orthogonalEdgeStyle;align=left;verticalAlign=bottom;rounded=0;" edge="1" parent="1">
          <mxGeometry x="-1" y="3" relative="1" as="geometry">
            <mxPoint x="414" y="250" as="sourcePoint" />
            <mxPoint x="414" y="200" as="targetPoint" />
          </mxGeometry>
        </mxCell>
        <mxCell id="vCusc7SqLOjIVwU9UAQ7-16" value="&lt;font style=&quot;font-size: 26px;&quot;&gt;LightSensor&lt;/font&gt;" style="rounded=1;whiteSpace=wrap;html=1;fillColor=#94E3FE;strokeColor=#00A3D7;" vertex="1" parent="1">
          <mxGeometry x="330" y="80" width="190" height="120" as="geometry" />
        </mxCell>
        <mxCell id="vCusc7SqLOjIVwU9UAQ7-17" value="" style="endArrow=open;html=1;endSize=12;startArrow=diamondThin;startSize=14;startFill=0;edgeStyle=orthogonalEdgeStyle;align=left;verticalAlign=bottom;rounded=0;" edge="1" parent="1">
          <mxGeometry x="-1" y="3" relative="1" as="geometry">
            <mxPoint x="-60" y="549.5" as="sourcePoint" />
            <mxPoint x="-189" y="549.5" as="targetPoint" />
          </mxGeometry>
        </mxCell>
        <mxCell id="vCusc7SqLOjIVwU9UAQ7-18" value="&lt;font style=&quot;font-size: 26px;&quot;&gt;TemperatureConnect&lt;/font&gt;" style="rounded=1;whiteSpace=wrap;html=1;fillColor=#94E3FE;strokeColor=#00A3D7;" vertex="1" parent="1">
          <mxGeometry x="-440" y="490" width="250" height="120" as="geometry" />
        </mxCell>
        <mxCell id="vCusc7SqLOjIVwU9UAQ7-19" value="&lt;font style=&quot;font-size: 26px;&quot;&gt;SoundConnect&lt;/font&gt;" style="rounded=1;whiteSpace=wrap;html=1;fillColor=#94E3FE;strokeColor=#00A3D7;" vertex="1" parent="1">
          <mxGeometry x="319" y="970" width="190" height="120" as="geometry" />
        </mxCell>
        <mxCell id="vCusc7SqLOjIVwU9UAQ7-20" value="" style="endArrow=open;html=1;endSize=12;startArrow=diamondThin;startSize=14;startFill=0;edgeStyle=orthogonalEdgeStyle;align=left;verticalAlign=bottom;rounded=0;" edge="1" parent="1">
          <mxGeometry x="-1" y="3" relative="1" as="geometry">
            <mxPoint x="414" y="850" as="sourcePoint" />
            <mxPoint x="414" y="970" as="targetPoint" />
          </mxGeometry>
        </mxCell>
        <mxCell id="vCusc7SqLOjIVwU9UAQ7-21" value="" style="endArrow=open;html=1;endSize=12;startArrow=diamondThin;startSize=14;startFill=0;edgeStyle=orthogonalEdgeStyle;align=left;verticalAlign=bottom;rounded=0;" edge="1" parent="1">
          <mxGeometry x="-1" y="3" relative="1" as="geometry">
            <mxPoint x="860" y="549.5" as="sourcePoint" />
            <mxPoint x="1020" y="549.5" as="targetPoint" />
          </mxGeometry>
        </mxCell>
        <mxCell id="vCusc7SqLOjIVwU9UAQ7-22" value="&lt;font style=&quot;font-size: 26px;&quot;&gt;MotionConnect&lt;/font&gt;" style="rounded=1;whiteSpace=wrap;html=1;fillColor=#94E3FE;strokeColor=#00A3D7;" vertex="1" parent="1">
          <mxGeometry x="1020" y="490" width="190" height="120" as="geometry" />
        </mxCell>
      </root>
    </mxGraphModel>
  </diagram>
</mxfile>
